HIERARCHY
ROOT Hips
{
	OFFSET 0.00 0.00 0.00
	CHANNELS 6 Xposition Yposition Zposition Xrotation Yrotation Zrotation
	JOINT Spine
	{
		OFFSET 0.00000 5.89385 0.00000
		CHANNELS 3 Xrotation Yrotation Zrotation
		JOINT Head
		{
			OFFSET 0.00000 16.44715 0.00000
			CHANNELS 3 Xrotation Yrotation Zrotation
			End Site
			{
				OFFSET 0.00000 4.52755 0.00000
			}
		}
		JOINT LeftShoulder
		{
			OFFSET 0.00000 10.90038 0.00000
			CHANNELS 3 Xrotation Yrotation Zrotation
			JOINT LeftArm
			{
				OFFSET 8.21946 0.00000 0.00000
				CHANNELS 3 Xrotation Yrotation Zrotation
				JOINT LeftForeArm
				{
					OFFSET 11.09494 0.00000 0.00000
					CHANNELS 3 Yrotation Zrotation Xrotation
					JOINT LeftHand
					{
						OFFSET 9.10388 0.00000 0.00000
						CHANNELS 3 Xrotation Yrotation Zrotation
						JOINT LeftHandThumb1
						{
							OFFSET 0.00000 0.00000 0.00000
							CHANNELS 3 Xrotation Zrotation Yrotation
							End Site
							{
								OFFSET 0.00000 0.00000 3.93700
							}
						}
						End Site
						{
							OFFSET 3.93700 0.00000 0.00000
						}
					}
				}
			}
		}
		JOINT RightShoulder
		{
			OFFSET 0.00000 10.90038 0.00000
			CHANNELS 3 Xrotation Yrotation Zrotation
			JOINT RightArm
			{
				OFFSET -8.21946 0.00000 0.00000
				CHANNELS 3 Xrotation Yrotation Zrotation
				JOINT RightForeArm
				{
					OFFSET -11.09494 0.00000 0.00000
					CHANNELS 3 Yrotation Zrotation Xrotation
					JOINT RightHand
					{
						OFFSET -9.10388 0.00000 0.00000
						CHANNELS 3 Xrotation Yrotation Zrotation
						JOINT RightHandThumb1
						{
							OFFSET 0.00000 0.00000 0.00000
							CHANNELS 3 Xrotation Zrotation Yrotation
							End Site
							{
								OFFSET 0.00000 0.00000 3.93700
							}
						}
						End Site
						{
							OFFSET -3.93700 0.00000 0.00000
						}
					}
				}
			}
		}
	}
	JOINT LeftUpLeg
	{
		OFFSET 3.69794 0.00000 0.00000
		CHANNELS 3 Xrotation Yrotation Zrotation
		JOINT LeftLeg
		{
			OFFSET 0.00000 -16.18147 0.00000
			CHANNELS 3 Xrotation Yrotation Zrotation
			JOINT LeftFoot
			{
				OFFSET 0.00000 -16.50139 0.00000
				CHANNELS 3 Xrotation Yrotation Zrotation
				JOINT LeftToeBase
				{
					OFFSET 0.00000 -1.65857 6.18989
					CHANNELS 3 Xrotation Yrotation Zrotation
					End Site
					{
						OFFSET 0.00000 0.00000 2.95275
					}
				}
			}
		}
	}
	JOINT RightUpLeg
	{
		OFFSET -3.69794 0.00000 0.00000
		CHANNELS 3 Xrotation Yrotation Zrotation
		JOINT RightLeg
		{
			OFFSET 0.00000 -16.18147 0.00000
			CHANNELS 3 Xrotation Yrotation Zrotation
			JOINT RightFoot
			{
				OFFSET 0.00000 -16.50139 0.00000
				CHANNELS 3 Xrotation Yrotation Zrotation
				JOINT RightToeBase
				{
					OFFSET 0.00000 -1.65857 6.18989
					CHANNELS 3 Xrotation Yrotation Zrotation
					End Site
					{
						OFFSET 0.00000 0.00000 2.95275
					}
				}
			}
		}
	}
}
MOTION
Frames: 21
Frame Time: 0.008333
 6.5297 36.2471 0.1530 95.4113 -63.1511 96.7404 -27.4944 1.3155 -2.1157 5.3726 11.0212 3.5438 7.7648 9.2941 29.9287 -40.4065 12.8119 -31.5161 -0.2339 0.0000 11.3794 2.1251 11.5916 -10.4631 33.1476 -0.0000 26.2537 34.4236 -30.0021 -12.0211 -71.4110 2.9920 35.5253 -2.6624 -0.0000 -8.0108 0.2359 -2.0474 6.5755 32.8623 0.0000 -24.3270 -30.4635 12.3188 7.7885 12.9675 -0.0000 -0.0000 -7.1568 12.4423 -9.2328 5.7755 0.0000 -0.0000 -30.3232 -3.0381 -8.2153 12.4629 0.0000 -0.0000 -8.1882 -12.6989 16.5227 9.6836 -0.0000 -0.0000
 6.5326 36.2468 0.1532 95.4153 -63.1494 96.7453 -27.4823 1.3124 -2.1152 5.4030 11.0126 3.5557 7.7765 9.2928 29.9290 -40.3801 12.7989 -31.5257 -0.2477 0.0000 11.3629 2.1251 11.5934 -10.4616 33.1476 -0.0000 26.2537 34.4457 -29.9970 -12.0176 -71.4181 2.9978 35.5475 -2.6392 -0.0000 -8.0214 0.2364 -2.0514 6.5753 32.8623 0.0000 -24.3270 -30.4759 12.3100 7.7907 12.9844 -0.0000 -0.0000 -7.1645 12.4499 -9.2477 5.7892 0.0000 -0.0000 -30.3353 -3.0337 -8.2149 12.4734 0.0000 0.0000 -8.1892 -12.7115 16.5332 9.6831 0.0000 -0.0000
 6.5364 36.2467 0.1539 95.4021 -63.1498 96.7303 -27.4606 1.3113 -2.1152 5.4134 10.9789 3.5798 7.7804 9.2819 29.9117 -40.3937 12.7779 -31.5080 -0.2097 0.0000 11.3309 2.0600 11.1064 -10.5770 33.1476 -0.0000 26.2537 34.4468 -29.9773 -11.9999 -71.4175 3.0138 35.5395 -2.6428 -0.0000 -8.0088 0.2295 -1.9985 6.5511 32.8623 0.0000 -24.3270 -30.4992 12.3123 7.7968 13.0098 0.0000 -0.0000 -7.1670 12.4284 -9.2562 5.8249 -0.0000 -0.0000 -30.3598 -3.0472 -8.2195 12.5049 -0.0000 0.0000 -8.1928 -12.6882 16.5342 9.6754 0.0000 -0.0000
 6.5399 36.2465 0.1545 95.3980 -63.1505 96.7270 -27.4383 1.3073 -2.1114 5.4310 10.9595 3.5821 7.7851 9.2796 29.9118 -40.3818 12.7689 -31.5221 -0.2056 0.0000 11.2967 2.0558 11.0813 -10.5790 33.1476 -0.0000 26.2537 34.4551 -29.9724 -11.9935 -71.4357 3.0221 35.5504 -2.6321 -0.0000 -7.9815 0.2309 -1.9966 6.5977 32.8623 0.0000 -24.3270 -30.5162 12.3143 7.8011 13.0296 0.0000 -0.0000 -7.1624 12.4182 -9.2814 5.7815 0.0000 -0.0000 -30.3729 -3.0405 -8.2227 12.5221 0.0000 -0.0000 -8.1891 -12.6924 16.5548 9.6765 -0.0000 0.0000
 6.5442 36.2462 0.1542 95.3634 -63.1544 96.6909 -27.4120 1.2986 -2.1106 5.4519 10.9400 3.5836 7.8070 9.2689 29.9086 -40.3635 12.7485 -31.5377 -0.2059 0.0000 11.2775 2.0496 11.0602 -10.5670 33.1476 -0.0000 26.2537 34.4692 -29.9702 -11.9831 -71.4194 3.0521 35.5610 -2.6298 -0.0000 -7.9767 0.2297 -1.9994 6.5544 32.8623 0.0000 -24.3270 -30.5367 12.3046 7.8032 13.0534 -0.0000 -0.0000 -7.1645 12.4049 -9.2756 5.8040 -0.0000 -0.0000 -30.3910 -3.0572 -8.2270 12.5499 -0.0000 0.0000 -8.1916 -12.6788 16.5377 9.6426 0.0000 -0.0000
 6.5486 36.2460 0.1536 95.3332 -63.1596 96.6585 -27.3806 1.2777 -2.1100 5.4618 10.9275 3.5963 7.8026 9.2685 29.9056 -40.3619 12.7389 -31.5519 -0.2046 0.0000 11.2624 2.0526 11.0899 -10.5547 33.1476 -0.0000 26.2537 34.4949 -29.9660 -11.9589 -71.4414 3.0802 35.5728 -2.6133 -0.0000 -7.9447 0.2313 -2.0137 6.5539 32.8623 0.0000 -24.3270 -30.5567 12.2931 7.8100 13.0809 -0.0000 -0.0000 -7.1602 12.3874 -9.3137 5.8055 0.0000 0.0000 -30.4041 -3.0668 -8.2276 12.5711 0.0000 -0.0000 -8.1980 -12.6734 16.5218 9.6510 0.0000 -0.0000
 6.5527 36.2457 0.1528 95.3065 -63.1664 96.6312 -27.3500 1.2639 -2.1142 5.4769 10.9074 3.6119 7.8079 9.2548 29.9153 -40.3543 12.7504 -31.5663 -0.2104 0.0000 11.2737 2.0513 11.0780 -10.5590 33.1476 -0.0000 26.2537 34.5138 -29.9512 -11.9485 -71.4331 3.1003 35.5805 -2.6054 -0.0000 -7.9402 0.2275 -1.9812 6.5518 32.8623 0.0000 -24.3270 -30.5737 12.2932 7.8129 13.1016 -0.0000 -0.0000 -7.1597 12.3670 -9.3239 5.7884 0.0000 0.0000 -30.4244 -3.0956 -8.2326 12.6034 0.0000 -0.0000 -8.2089 -12.6670 16.5326 9.6579 0.0000 0.0000
 6.5578 36.2452 0.1528 95.2918 -63.1739 96.6177 -27.3139 1.2604 -2.1156 5.4952 10.8863 3.6210 7.8140 9.2435 29.9088 -40.3007 12.7176 -31.5883 -0.2359 0.0000 11.1983 2.0560 11.1304 -10.5349 33.1476 -0.0000 26.2537 34.5192 -29.9433 -11.9475 -71.3972 3.1284 35.5935 -2.5826 -0.0000 -7.9524 0.2298 -2.0051 6.5395 32.8623 0.0000 -24.3270 -30.5933 12.3011 7.8149 13.1289 0.0000 -0.0000 -7.1592 12.3455 -9.2941 5.7879 -0.0000 -0.0000 -30.4445 -3.0936 -8.2369 12.6432 0.0000 0.0000 -8.2156 -12.6684 16.5429 9.6551 -0.0000 -0.0000
 6.5622 36.2445 0.1517 95.2549 -63.1937 96.5812 -27.2658 1.2402 -2.1206 5.5166 10.8684 3.6348 7.8200 9.2458 29.9067 -40.3144 12.7213 -31.6090 -0.2702 0.0000 11.2309 2.0568 11.1597 -10.5119 33.1476 -0.0000 26.2537 34.5341 -29.9348 -11.9374 -71.4073 3.1427 35.6112 -2.5646 -0.0000 -7.9715 0.2321 -2.0294 6.5247 32.8623 0.0000 -24.3270 -30.6023 12.2986 7.8179 13.1572 0.0000 -0.0000 -7.1571 12.3252 -9.3050 5.7697 0.0000 -0.0000 -30.4493 -3.1173 -8.2426 12.6738 0.0000 0.0000 -8.2289 -12.6589 16.5348 9.6439 0.0000 -0.0000
 6.5669 36.2441 0.1506 95.2332 -63.2050 96.5585 -27.2257 1.2371 -2.1235 5.5406 10.8522 3.6487 7.8231 9.2366 29.9067 -40.3747 12.7484 -31.6146 -0.2911 0.0000 11.2964 2.0542 11.1157 -10.5389 33.1476 -0.0000 26.2537 34.5405 -29.9265 -11.9344 -71.4097 3.1386 35.6233 -2.5500 -0.0000 -7.9473 0.2317 -2.0186 6.5506 32.8623 0.0000 -24.3270 -30.6225 12.3159 7.8262 13.1893 0.0000 -0.0000 -7.1564 12.2869 -9.3109 5.7469 -0.0000 0.0000 -30.4664 -3.1484 -8.2476 12.7070 0.0000 -0.0000 -8.2349 -12.6242 16.5301 9.6358 -0.0000 -0.0000
 6.5717 36.2434 0.1494 95.2286 -63.2162 96.5554 -27.1860 1.2347 -2.1259 5.5757 10.8408 3.6631 7.8275 9.2318 29.9057 -40.3637 12.7502 -31.6382 -0.3453 0.0000 11.2695 2.0590 11.1061 -10.5721 33.1476 -0.0000 26.2537 34.5317 -29.9155 -11.9410 -71.4130 3.1378 35.6416 -2.5377 -0.0000 -7.9474 0.2341 -2.0340 6.5664 32.8623 0.0000 -24.3270 -30.6417 12.3468 7.8362 13.2186 0.0000 -0.0000 -7.1530 12.2576 -9.3335 5.7554 -0.0000 0.0000 -30.4911 -3.1614 -8.2491 12.7587 -0.0000 0.0000 -8.2542 -12.6155 16.5014 9.6446 0.0000 0.0000
 6.5759 36.2418 0.1479 95.2056 -63.2573 96.5359 -27.1069 1.2238 -2.1318 5.5959 10.8200 3.6692 7.8410 9.2426 29.8859 -40.3498 12.7030 -31.6562 -0.3928 0.0000 11.1220 2.0522 11.1027 -10.5412 33.1476 -0.0000 26.2537 34.5214 -29.9132 -11.9565 -71.4075 3.1277 35.6680 -2.5181 -0.0000 -7.9326 0.2367 -2.0408 6.6187 32.8623 0.0000 -24.3270 -30.6355 12.3600 7.8408 13.2587 0.0000 0.0000 -7.1549 12.2116 -9.3315 5.7102 0.0000 -0.0000 -30.4830 -3.1898 -8.2589 12.8036 -0.0000 0.0000 -8.2777 -12.5840 16.4964 9.6268 0.0000 0.0000
 6.5808 36.2409 0.1474 95.1863 -63.2832 96.5180 -27.0455 1.2177 -2.1338 5.6207 10.8125 3.6788 7.8249 9.2148 29.8900 -40.3448 12.7627 -31.6796 -0.5132 0.0000 11.2228 2.0572 11.1230 -10.5477 33.1476 -0.0000 26.2537 34.4999 -29.8895 -11.9719 -71.4308 3.0937 35.6714 -2.5154 -0.0000 -7.9103 0.2345 -2.0196 6.6257 32.8623 0.0000 -24.3270 -30.6500 12.3713 7.8496 13.3085 -0.0000 0.0000 -7.1606 12.1816 -9.3511 5.7379 -0.0000 -0.0000 -30.4951 -3.2130 -8.2676 12.8551 0.0000 -0.0000 -8.2888 -12.5601 16.5130 9.6071 -0.0000 0.0000
 6.5868 36.2400 0.1459 95.1657 -63.2968 96.4989 -26.9958 1.2139 -2.1335 5.6509 10.8099 3.6775 7.8341 9.2127 29.8657 -40.3455 12.7611 -31.6935 -0.6353 0.0000 11.2675 2.1052 11.1220 -10.7890 33.1476 -0.0000 26.2537 34.4826 -29.8843 -11.9883 -71.4117 3.0947 35.6898 -2.4923 -0.0000 -7.9399 0.2361 -2.0170 6.6767 32.8623 0.0000 -24.3270 -30.6866 12.3914 7.8597 13.3692 -0.0000 0.0000 -7.1618 12.1451 -9.3574 5.6793 0.0000 -0.0000 -30.5179 -3.2139 -8.2711 12.9068 -0.0000 0.0000 -8.3036 -12.5541 16.4949 9.5932 -0.0000 0.0000
 6.5913 36.2383 0.1446 95.1516 -63.3415 96.4808 -26.9118 1.2089 -2.1286 5.6783 10.7935 3.6688 7.8482 9.2337 29.8487 -40.2879 12.6775 -31.7485 -0.7392 0.0000 11.1568 2.0672 11.1247 -10.5960 33.1476 -0.0000 26.2537 34.4595 -29.8677 -12.0093 -71.3891 3.0784 35.6990 -2.4514 -0.0000 -7.9333 0.2375 -2.0244 6.6927 32.8623 0.0000 -24.3270 -30.6943 12.4046 7.8767 13.4393 -0.0000 -0.0000 -7.1791 12.1029 -9.3716 5.6936 0.0000 -0.0000 -30.5100 -3.2310 -8.2743 12.9619 -0.0000 0.0000 -8.3209 -12.5447 16.5169 9.5839 -0.0000 -0.0000
 6.5957 36.2361 0.1427 95.1221 -63.3892 96.4518 -26.8220 1.2037 -2.1303 5.6938 10.7820 3.6654 7.8563 9.2174 29.8252 -40.2637 12.6859 -31.7666 -0.9098 0.0000 11.1375 2.0650 11.1781 -10.5361 33.1476 -0.0000 26.2537 34.4843 -29.8616 -11.9999 -71.3780 3.0864 35.7044 -2.3950 -0.0000 -7.9610 0.2386 -2.0495 6.6414 32.8623 0.0000 -24.3270 -30.7012 12.4126 7.8870 13.5133 0.0000 0.0000 -7.1950 12.0719 -9.3759 5.6872 -0.0000 0.0000 -30.4996 -3.2576 -8.2820 13.0187 0.0000 -0.0000 -8.3576 -12.5359 16.5289 9.6129 0.0000 -0.0000
 6.6011 36.2346 0.1414 95.1273 -63.4242 96.4610 -26.7444 1.2146 -2.1297 5.7218 10.7786 3.6532 7.8766 9.2144 29.8044 -40.1985 12.6514 -31.8066 -1.0746 0.0000 11.1020 2.0634 11.1406 -10.5623 33.1476 -0.0000 26.2537 34.4462 -29.8479 -12.0355 -71.3121 3.0795 35.7173 -2.3333 -0.0000 -7.9523 0.2370 -2.0269 6.6719 32.8623 0.0000 -24.3270 -30.7216 12.4328 7.8996 13.5947 -0.0000 0.0000 -7.2102 12.0384 -9.3852 5.6662 -0.0000 0.0000 -30.5122 -3.2624 -8.2891 13.0899 0.0000 -0.0000 -8.3813 -12.5196 16.5322 9.5845 -0.0000 0.0000
 6.6058 36.2326 0.1392 95.1014 -63.4880 96.4312 -26.6321 1.2103 -2.1282 5.7333 10.7734 3.6462 7.9006 9.2173 29.7758 -40.1686 12.5941 -31.8440 -1.1939 0.0000 11.0640 2.0553 11.1290 -10.5324 33.1476 -0.0000 26.2537 34.4330 -29.8256 -12.0401 -71.2196 3.1084 35.7081 -2.2503 -0.0000 -8.0145 0.2370 -2.0329 6.6506 32.8623 0.0000 -24.3270 -30.7198 12.4392 7.9159 13.6789 0.0000 0.0000 -7.2260 12.0042 -9.3996 5.6408 -0.0000 -0.0000 -30.4925 -3.2845 -8.2920 13.1602 -0.0000 0.0000 -8.4056 -12.4980 16.5201 9.5615 -0.0000 -0.0000
 6.6128 36.2308 0.1371 95.0791 -63.5351 96.4077 -26.5325 1.2097 -2.1236 5.7387 10.7627 3.6287 7.9170 9.2131 29.7460 -40.1070 12.5321 -31.8849 -1.3311 0.0000 11.0129 2.0433 11.0667 -10.5291 33.1476 -0.0000 26.2537 34.4311 -29.8114 -12.0496 -71.2554 3.0647 35.7081 -2.1805 -0.0000 -7.9513 0.2391 -2.0470 6.6637 32.8623 0.0000 -24.3270 -30.7410 12.4413 7.9313 13.7719 -0.0000 0.0000 -7.2403 11.9724 -9.4174 5.6161 -0.0000 -0.0000 -30.4970 -3.2917 -8.2952 13.2378 0.0000 -0.0000 -8.4289 -12.4956 16.5037 9.5395 0.0000 -0.0000
 6.6194 36.2282 0.1353 95.0691 -63.6025 96.3988 -26.4142 1.2103 -2.1177 5.7647 10.7326 3.6242 7.9411 9.1925 29.7086 -40.0617 12.4942 -31.9117 -1.4769 0.0000 10.9914 2.0368 11.1237 -10.4445 33.1476 -0.0000 26.2537 34.4448 -29.8004 -12.0611 -71.2498 3.0472 35.7136 -2.0712 -0.0000 -7.9139 0.2430 -2.0748 6.6813 32.8623 0.0000 -24.3270 -30.7401 12.4427 7.9437 13.8677 -0.0000 0.0000 -7.2608 11.9468 -9.4188 5.5934 0.0000 -0.0000 -30.4873 -3.3120 -8.3021 13.3251 -0.0000 -0.0000 -8.4687 -12.4755 16.5039 9.5428 -0.0000 0.0000
 6.6267 36.2259 0.1324 95.0617 -63.6477 96.3922 -26.3164 1.2157 -2.1148 5.7878 10.7245 3.6126 7.8875 9.1077 29.7272 -39.9356 12.5509 -31.9480 -1.6699 0.0000 11.0584 2.0404 11.0641 -10.5172 33.1476 -0.0000 26.2537 34.4557 -29.7978 -12.0632 -71.2089 3.0682 35.7263 -1.9565 -0.0000 -7.9091 0.2418 -2.0660 6.6763 32.8623 0.0000 -24.3270 -30.7605 12.4318 7.9608 13.9640 -0.0000 0.0000 -7.2762 11.9266 -9.4407 5.5717 -0.0000 -0.0000 -30.4944 -3.3197 -8.3037 13.4030 0.0000 -0.0000 -8.4986 -12.4693 16.4874 9.5113 0.0000 0.0000
